<?xml version="1.0" encoding="utf-8"?>
<!-- Generator: Adobe Illustrator 16.0.0, SVG Export Plug-In . SVG Version: 6.00 Build 0)  -->
<!DOCTYPE svg PUBLIC "-//W3C//DTD SVG 1.1//EN" "http://www.w3.org/Graphics/SVG/1.1/DTD/svg11.dtd">
<svg version="1.1" id="Layer_1" xmlns="http://www.w3.org/2000/svg" xmlns:xlink="http://www.w3.org/1999/xlink" x="0px" y="0px"
	 width="216px" height="216px" viewBox="0 0 216 216" enable-background="new 0 0 216 216" xml:space="preserve">
<g>
	<path fill="#B63825" d="M99,49.5c0,0-0.365-0.039-1.019-0.146c-0.329-0.031-0.701-0.037-1.109-0.044
		c-0.445,0.014-0.908,0.01-1.432,0.066c-1.04,0.102-2.213,0.317-3.51,0.661c-1.296,0.34-2.716,0.781-4.267,1.297
		c-3.093,1.025-6.743,2.298-10.841,3.438c-4.103,1.159-8.661,2.151-13.503,2.745c-4.838,0.561-9.965,0.735-15.137-0.06
		c-2.584-0.401-5.18-1.031-7.701-2.049c-2.503-1.004-4.972-2.441-6.935-4.351c-0.967-0.984-1.822-2.012-2.45-3.112
		c-0.605-1.116-1.076-2.191-1.291-3.242c-0.476-2.085-0.281-3.792,0.033-5.065c0.169-0.64,0.337-1.182,0.555-1.638
		c0.188-0.456,0.373-0.827,0.553-1.121C31.29,36.29,31.5,36,31.5,36s0.211,0.287,0.607,0.824c0.378,0.519,0.949,1.258,1.67,2.013
		c0.74,0.746,1.65,1.493,2.658,1.892c0.996,0.422,2.018,0.468,3.082,0.392c1.097-0.093,2.32-0.263,3.815-0.513
		c1.477-0.244,3.183-0.568,5.036-0.917c3.716-0.714,8.039-1.489,12.605-2.034c4.566-0.521,9.396-0.819,14.135-0.52
		c4.738,0.292,9.398,1.126,13.397,2.691c1.992,0.776,3.803,1.708,5.306,2.755c1.504,1.044,2.688,2.188,3.481,3.252
		c0.799,1.029,1.244,2.026,1.467,2.665C98.928,49.14,99,49.5,99,49.5z"/>
</g>
<g>
	<path fill="#B63825" d="M58.5,18c0,0,0.234,0.178,0.602,0.517c0.18,0.169,0.402,0.378,0.663,0.624
		c0.13,0.123,0.269,0.254,0.417,0.395c0.151,0.112,0.311,0.224,0.477,0.333c0.348,0.219,0.659,0.426,1.022,0.621
		c0.415,0.206,0.78,0.416,1.18,0.595c0.441,0.158,0.839,0.308,1.251,0.42c0.482,0.082,0.823,0.193,1.287,0.225
		c0.857,0.091,1.704,0.107,2.59,0.147c0.934,0.031,1.833,0.106,2.935,0.228c1.058,0.128,2.214,0.315,3.466,0.591
		c1.224,0.277,2.577,0.621,3.938,1.063c2.751,0.9,5.698,2.147,8.497,3.971c1.382,0.884,2.751,1.947,3.967,3.072
		c1.238,1.179,2.338,2.402,3.232,3.764c0.889,1.313,1.57,2.71,1.976,4.002c0.206,0.631,0.353,1.271,0.43,1.855
		c0.095,0.569,0.129,1.11,0.105,1.61c0.023,0.949-0.221,1.741-0.341,2.222C96.053,44.745,95.933,45,95.932,45
		c0,0-0.267-0.08-0.767-0.23c-0.231-0.074-0.513-0.157-0.833-0.237c-0.323-0.078-0.719-0.136-1.097-0.206
		c-0.396-0.059-0.78-0.13-1.243-0.147c-0.465-0.013-0.848-0.074-1.356-0.048c-0.491,0.018-0.906-0.009-1.438,0.043
		c-0.257,0.026-0.489,0.023-0.729,0.036c-0.254,0.021-0.514,0.042-0.779,0.063c-1.009,0.074-2.132,0.163-3.258,0.192
		c-1.183,0.046-2.374,0.031-3.697-0.046c-1.29-0.086-2.688-0.232-4.115-0.506c-1.439-0.269-2.939-0.644-4.476-1.138
		c-1.546-0.517-3.102-1.136-4.688-1.949c-1.568-0.79-3.141-1.774-4.633-2.964c-1.476-1.147-2.906-2.604-4.072-4.15
		c-1.176-1.592-2.103-3.347-2.613-5.103c-0.252-0.866-0.41-1.747-0.504-2.537c-0.022-0.839-0.058-1.585,0.029-2.288
		c0.124-0.711,0.23-1.335,0.406-1.901c0.189-0.592,0.396-1.121,0.62-1.56c0.11-0.212,0.213-0.414,0.312-0.603
		c0.131-0.157,0.255-0.304,0.37-0.441c0.232-0.274,0.43-0.507,0.59-0.696C58.288,18.204,58.5,18,58.5,18z"/>
</g>
<g>
	<line fill="none" stroke="#3C2415" stroke-width="11" stroke-miterlimit="10" x1="45" y1="72" x2="76.5" y2="103.5"/>
	<line fill="none" stroke="#808285" stroke-width="9" stroke-miterlimit="10" x1="81" y1="108" x2="90" y2="117"/>
	<line fill="none" stroke="#414042" stroke-width="11" stroke-miterlimit="10" x1="72" y1="112.5" x2="85.5" y2="99"/>
</g>
<circle stroke="#000000" stroke-miterlimit="10" cx="121.5" cy="72" r="45"/>
<path stroke="#000000" stroke-miterlimit="10" d="M58.5,198c0,0,0-82.318,45-94.666c8.621-2.365,27.379-2.366,36,0
	c45,12.347,45,94.666,45,94.666H58.5z"/>
<path fill="#FFFFFF" stroke="#000000" stroke-miterlimit="10" d="M88.082,75.375c-5.093,1.591-0.406-21.28,4.802-22.5
	c19.207-4.5,38.414-4.5,57.621,0c5.208,1.22,9.896,24.091,4.802,22.5C140.901,70.875,102.487,70.875,88.082,75.375z"/>
<line fill="none" stroke="#000000" stroke-width="5" stroke-linecap="round" stroke-miterlimit="10" x1="94.5" y1="57.454" x2="117" y2="66.454"/>
<line fill="none" stroke="#000000" stroke-width="5" stroke-linecap="round" stroke-miterlimit="10" x1="126" y1="66.454" x2="148.5" y2="57.454"/>
<line fill="none" stroke="#120B08" stroke-width="5" stroke-miterlimit="10" x1="153" y1="117" x2="63" y2="180"/>
<line fill="none" stroke="#0E0704" stroke-width="5" stroke-miterlimit="10" x1="90" y1="117" x2="121.5" y2="139.5"/>
</svg>
